# xmcd
#
# Track frame offsets: 
#        150
#        28244
#        60893
#        83160
#        112623
#        140799
#        171086
#        202578
#
# Disc length: 3032 seconds
#
# Revision: 1
# Processed by: cddbd v1.5.1PL0 Copyright (c) Steve Scherf et al.
# Submitted via: ExactAudioCopy v0.95a5
#
DISCID=5b0bd608
DTITLE=Bonny Billy and Marquis De Tren - Get the Fuck On Jolly [live]
DYEAR=2001
DGENRE=Alternative
TTITLE0=XXV
TTITLE1=II/XV
TTITLE2=LXXXI
TTITLE3=LXXXVI
TTITLE4=LXIV
TTITLE5=LXVI
TTITLE6=XIII
TTITLE7=CII
EXTD=YEAR: 2001 ID3G:   2
EXTT0=
EXTT1=
EXTT2=
EXTT3=
EXTT4=
EXTT5=
EXTT6=
EXTT7=
PLAYORDER=
